#!OML:ASF C:\ViconDB\ViconDB\414\Spring2016\041811\Spring2016.ASF
:FULLY-SPECIFIED
:DEGREES
231
root 6.25114 15.992 -17.3974 -172.84 -8.06878 180.645
lowerback 30.7993 0.807689 0.296425
upperback 3.9806 0.0662887 0.181141
thorax -11.6574 -0.432474 0.101578
lowerneck -19.2521 4.02699 -4.89523
upperneck 12.7472 5.18271 8.47033
head 6.66416 3.00197 4.12104
rclavicle -1.91082e-014 3.926e-015
rhumerus -37.3293 -1.15569 -80.0046
rradius 72.9399
rwrist 6.59864
rhand -37.6408 -20.4062
rfingers 7.12502
rthumb -10.6928 -50.1141
lclavicle -1.91082e-014 3.926e-015
lhumerus -31.7133 -6.78402 76.2694
lradius 64.4968
lwrist -2.10749
lhand -34.6668 13.1053
lfingers 7.12502
lthumb -7.82314 42.9405
rfemur -47.6405 -17.6084 25.2349
rtibia 71.8518
rfoot -3.96338 -12.1653
rtoes -5.21744
lfemur -52.734 10.92 -14.1287
ltibia 67.406
lfoot -19.7795 -10.2953
ltoes -11.4703
232
root 6.24483 15.7847 -17.5452 -172.447 -7.93156 180.541
lowerback 31.0322 0.985973 0.0534077
upperback 4.00878 0.197637 0.175758
thorax -11.7267 -0.369634 0.179629
lowerneck -19.5688 4.01819 -4.9684
upperneck 12.2574 5.23667 8.3923
head 6.55487 3.02304 4.10693
rclavicle 1.80273e-014 -3.70236e-015
rhumerus -38.3513 -2.95632 -80.5636
rradius 70.9116
rwrist 5.36262
rhand -38.3677 -20.2736
rfingers 7.12502
rthumb -11.3939 -49.944
lclavicle 1.80273e-014 -3.70236e-015
lhumerus -32.7121 -6.03019 77.2535
lradius 63.3916
lwrist -0.963638
lhand -34.1881 13.5961
lfingers 7.12502
lthumb -7.36116 43.448
rfemur -49.3357 -17.589 25.2238
rtibia 74.8172
rfoot -3.33036 -12.5478
rtoes -4.16638
lfemur -54.4452 10.9363 -13.996
ltibia 70.3042
lfoot -21.0791 -10.3928
ltoes -11.7615
233
root 6.23406 15.5976 -17.695 -172.147 -7.76168 180.282
lowerback 31.1705 1.16147 -0.268505
upperback 4.19165 0.261524 0.107089
thorax -11.5825 -0.346881 0.258618
lowerneck -19.7628 4.00316 -5.09588
upperneck 11.4277 5.31219 8.26248
head 6.31436 3.04451 4.07123
rclavicle 9.88954e-015 8.4235e-015
rhumerus -39.0921 -4.93716 -81.1217
rradius 68.8386
rwrist 4.56557
rhand -39.1066 -19.7733
rfingers 7.12502
rthumb -12.1065 -49.403
lclavicle 9.88954e-015 8.4235e-015
lhumerus -33.4666 -5.12271 78.0843
lradius 62.382
lwrist 0.434443
lhand -33.7218 13.9542
lfingers 7.12502
lthumb -6.91098 43.8213
rfemur -50.6896 -17.8137 25.0183
rtibia 77.4635
rfoot -2.6743 -12.9603
rtoes -3.41497
lfemur -55.6708 11.0512 -14.139
ltibia 72.8596
lfoot -22.3973 -10.3919
ltoes -12.6612
234
root 6.22791 15.4384 -17.8338 -171.737 -7.89695 181.272
lowerback 31.32 1.04764 0.521977
upperback 4.18725 0.415663 0.428837
thorax -11.643 -0.306353 0.117472
lowerneck -19.8935 4.07914 -5.21389
upperneck 10.743 5.50516 8.07371
head 6.10359 3.1175 4.02894
rclavicle 5.80203e-015 1.24986e-014
rhumerus -39.9641 -6.50121 -81.5983
rradius 67.0498
rwrist 3.94416
rhand -39.5244 -19.9974
rfingers 7.12502
rthumb -12.5093 -49.6029
lclavicle 5.80203e-015 1.24986e-014
lhumerus -34.2308 -4.01288 78.8292
lradius 61.3163
lwrist 0.897346
lhand -33.1461 14.3353
lfingers 7.12502
lthumb -6.35527 44.22
rfemur -51.8049 -17.7091 26.3643
rtibia 79.3788
rfoot -1.60705 -13.2135
rtoes -2.6488
lfemur -57.1098 11.3673 -12.952
ltibia 75.0718
lfoot -23.6914 -10.6627
ltoes -12.5599
235
root 6.21196 15.3168 -18.0105 -171.519 -7.56241 181
lowerback 31.4831 1.25702 0.160448
upperback 4.30426 0.511975 0.296366
thorax -11.5837 -0.263454 0.136745
lowerneck -20.0238 4.07933 -5.19692
upperneck 10.2356 5.55414 7.8521
head 5.96563 3.12323 3.94715
rclavicle -1.43249e-014 8.92046e-015
rhumerus -40.866 -8.18814 -82.1106
rradius 65.2857
rwrist 3.76209
rhand -39.6124 -19.906
rfingers 7.12502
rthumb -12.5941 -49.5064
lclavicle -1.43249e-014 8.92046e-015
lhumerus -35.0268 -3.42233 79.3112
lradius 60.4516
lwrist 1.41749
lhand -32.6769 14.8538
lfingers 7.12502
lthumb -5.90225 44.7516
rfemur -52.103 -17.908 25.9706
rtibia 80.8832
rfoot -0.693334 -14.1097
rtoes -2.86646
lfemur -57.3742 11.6838 -13.2037
ltibia 76.7741
lfoot -25.7724 -10.4708
ltoes -12.4062
